<svg width="187" height="28" viewBox="0 0 187 28" fill="none" xmlns="http://www.w3.org/2000/svg">
<g clip-path="url(#clip0_166_555)">
<mask id="mask0_166_555" style="mask-type:luminance" maskUnits="userSpaceOnUse" x="0" y="0" width="187" height="28">
<path d="M0 28H186.629V0H0V28Z" fill="white"/>
</mask>
<g mask="url(#mask0_166_555)">
<path d="M7.4023 16.1635L7.50958 16.6999C13.0524 16.235 17.9157 13.1239 17.9157 8.1175C17.9157 3.25415 13.41 0.822478 7.0447 0.822478H0V27.6424H5.48318V1.93104C6.22725 1.9614 6.96819 2.04506 7.7003 2.18135C9.10228 2.36575 10.3775 3.08832 11.2563 4.1962C12.135 5.30407 12.5483 6.71035 12.4087 8.1175C12.4087 12.0511 11.2644 14.9476 7.4023 16.1635ZM32.4342 25.6041C32.5415 25.2465 33.0779 22.9579 33.1137 22.6718C31.5321 23.7036 29.6731 24.2277 27.7854 24.1737C24.1022 24.1737 21.9923 21.9208 21.9923 17.7369C21.9923 17.3435 21.9923 16.9502 22.0281 16.5926H33.0779C33.1208 16.2485 33.1446 15.9023 33.1494 15.5556C33.1852 11.4432 30.527 9.33333 26.4623 9.33333C24.6763 9.36132 22.9369 9.90798 21.4559 10.9068C20.1097 11.8306 19.0219 13.0832 18.2959 14.5456C17.5699 16.0081 17.2298 17.6318 17.3078 19.2627C17.2226 20.3914 17.3741 21.5256 17.7527 22.5924C18.1313 23.6592 18.7285 24.6352 19.5062 25.4578C20.2839 26.2803 21.2248 26.9314 22.2688 27.3692C23.3127 27.8069 24.4365 28.0218 25.5683 28C26.8183 28.1258 28.0806 27.9765 29.2667 27.5626C30.4528 27.1487 31.5339 26.4802 32.4342 25.6041ZM25.6041 10.0843C27.8212 10.1201 28.6794 11.3716 28.6794 15.3768L22.0639 15.8774C22.493 11.7292 24.2452 10.1558 25.6041 10.0843ZM36.1175 10.1558V27.6424H40.8736V14.0894C41.5015 13.4893 42.302 13.1015 43.1622 12.9808C44.3165 13.1882 45.444 13.524 46.5236 13.9821L47.7395 9.72669C47.0697 9.50009 46.3716 9.3677 45.6654 9.33333C45.1218 9.33729 44.5853 9.45739 44.0919 9.68558C43.5985 9.91377 43.1596 10.2448 42.8046 10.6565C42.0639 11.5359 41.4055 12.4816 40.8378 13.4815V9.47637L36.1175 10.1558ZM49.3487 0.679439V27.6424H54.069V0L49.3487 0.679439ZM59.7905 10.2154C59.4329 10.7876 58.682 12.1822 57.7522 13.9344L57.8237 13.9702C59.3395 13.2575 60.9788 12.8447 62.6513 12.7544C64.9757 12.7544 66.3346 13.5053 66.3346 15.4364V17.6654L57.5138 21.003C57.1873 21.8845 57.0178 22.8164 57.0132 23.7565C56.9742 24.3223 57.0563 24.8899 57.2541 25.4215C57.4518 25.9531 57.7607 26.4364 58.1601 26.8391C58.5594 27.2418 59.0401 27.5547 59.5699 27.757C60.0998 27.9592 60.6667 28.0461 61.2329 28.0119C62.5778 28.0324 63.8777 27.5279 64.8565 26.6054C65.4742 26.0713 65.984 25.4239 66.3584 24.6982H66.43V24.7697C66.5015 26.7365 67.8961 27.9881 70.4708 27.9881C71.0539 27.9777 71.6323 27.8813 72.1873 27.702L73.3674 24.2333C73.125 24.3117 72.871 24.348 72.6164 24.3406C71.7224 24.3406 71.1145 23.8399 71.1145 22.6241V14.1252C71.1145 11.3359 69.0404 9.33333 64.4274 9.33333C62.8351 9.3329 61.2572 9.63632 59.7786 10.2273M61.5428 22.3619C61.5094 21.6875 61.6317 21.0145 61.9004 20.3951L66.3346 18.3091V24.2452C66.0166 24.6515 65.6092 24.979 65.144 25.2022C64.6789 25.4255 64.1685 25.5385 63.6526 25.5326C62.1865 25.5326 61.5428 24.4955 61.5428 22.3499M99.5198 27.6424H103.489L103.811 0.822478H100.807L101.415 20.7765H101.272L88.5773 0.822478H82.9272L82.5338 27.6424H85.5377L85.0013 5.39975H85.1801L99.5198 27.6424ZM109.962 10.2273C109.604 10.7995 108.853 12.1941 107.923 13.9464L107.995 13.9821C109.511 13.2695 111.15 12.8566 112.822 12.7663C115.147 12.7663 116.506 13.5172 116.506 15.4483V17.6654L107.685 21.003C107.358 21.8845 107.189 22.8164 107.184 23.7565C107.145 24.3223 107.227 24.8899 107.425 25.4215C107.623 25.9531 107.932 26.4364 108.331 26.8391C108.731 27.2418 109.211 27.5547 109.741 27.757C110.271 27.9592 110.838 28.0461 111.404 28.0119C112.755 28.0419 114.065 27.5413 115.051 26.6173C115.669 26.0832 116.179 25.4358 116.553 24.7101H116.625V24.7816C116.696 26.7484 118.091 28 120.666 28C121.249 27.9896 121.827 27.8932 122.382 27.7139L123.574 24.2452C123.332 24.3237 123.078 24.3599 122.823 24.3525C121.929 24.3525 121.321 23.8519 121.321 22.636V14.1252C121.321 11.3359 119.247 9.33333 114.634 9.33333C113.042 9.3329 111.464 9.63632 109.986 10.2273M111.714 22.3619C111.68 21.6875 111.803 21.0145 112.072 20.3951L116.506 18.3091V24.2452C116.188 24.6515 115.78 24.979 115.315 25.2022C114.85 25.4255 114.34 25.5385 113.824 25.5326C112.358 25.5326 111.714 24.4955 111.714 22.3499M131.346 4.36271L126.578 5.9719V9.76245L123.693 12.3014L123.837 12.7305H126.59V23.9353C126.59 27.0345 129.63 28.0119 131.453 28.0119C132.355 28.104 133.266 27.964 134.098 27.6051C134.93 27.2463 135.657 26.6806 136.209 25.9617C136.317 25.4299 136.397 24.8927 136.448 24.3525C135.723 24.6524 134.944 24.7985 134.159 24.7816C132.514 24.7816 131.334 24.1379 131.334 22.4572V12.7305H135.947L136.627 9.65517H131.346V4.36271ZM143.528 21.6467V9.51213L138.772 10.1916V22.7791C138.684 23.4732 138.754 24.1782 138.976 24.8418C139.198 25.5054 139.566 26.1104 140.054 26.612C140.542 27.1135 141.137 27.4988 141.794 27.7391C142.451 27.9794 143.154 28.0686 143.85 28C145.247 28.057 146.613 27.5844 147.676 26.6769C148.608 25.9834 149.428 25.1513 150.108 24.2095V27.857L154.828 27.1418V9.51213L150.06 10.1916V23.6731C149.147 24.4718 147.984 24.927 146.771 24.9604C144.482 24.9604 143.516 24.0307 143.516 21.6347M158.521 10.1558V27.6424H163.289V14.0894C163.917 13.4893 164.718 13.1015 165.578 12.9808C166.732 13.1882 167.86 13.524 168.939 13.9821L170.155 9.72669C169.485 9.50009 168.787 9.3677 168.081 9.33333C167.537 9.33729 167.001 9.45739 166.508 9.68558C166.014 9.91377 165.575 10.2448 165.22 10.6565C164.48 11.5359 163.821 12.4816 163.253 13.4815V9.47637L158.521 10.1558ZM173.04 10.2273C172.682 10.7995 171.931 12.1941 171.001 13.9464L171.073 13.9821C172.589 13.2695 174.228 12.8566 175.901 12.7663C178.225 12.7663 179.584 13.5172 179.584 15.4483V17.6654L170.751 21.003C170.425 21.8845 170.255 22.8165 170.25 23.7565C170.211 24.3223 170.294 24.8899 170.491 25.4215C170.689 25.9531 170.998 26.4364 171.397 26.8391C171.797 27.2418 172.277 27.5547 172.807 27.757C173.337 27.9592 173.904 28.0461 174.47 28.0119C175.822 28.0419 177.131 27.5413 178.118 26.6173C178.735 26.0832 179.245 25.4358 179.62 24.7101H179.691V24.7816C179.763 26.7484 181.157 28 183.732 28C184.315 27.9896 184.893 27.8932 185.448 27.7139L186.64 24.2452C186.398 24.3237 186.144 24.3599 185.889 24.3525C184.995 24.3525 184.388 23.8519 184.388 22.636V14.1252C184.388 11.3359 182.313 9.33333 177.7 9.33333C176.108 9.3329 174.53 9.63632 173.052 10.2273M174.792 22.3619C174.759 21.6875 174.881 21.0145 175.15 20.3951L179.584 18.3091V24.2452C179.266 24.6515 178.858 24.979 178.393 25.2022C177.928 25.4255 177.418 25.5385 176.902 25.5326C175.436 25.5326 174.792 24.4955 174.792 22.3499" fill="#233918"/>
</g>
</g>
<defs>
<clipPath id="clip0_166_555">
<rect width="186.629" height="28" fill="white"/>
</clipPath>
</defs>
</svg>
